:SAMPLES-PER-SECOND 30
:FRAME-RANGE 1-1770
:FULLY-SPECIFIED
:DEGREES
388
root  -3.26572 37.1769 -25.6108 -1.84793 -5.32225 -2.3367
RightUpLeg  10.5164 -4.59516 -2.56174
RightLeg  30.2157 -0.633515 -0.63759
RightFoot  -26.0813 1.90765 16.0315
RightToes  6.35937e-011 1.2921e-014 -6.02303e-014
Spine  5.13267 0.133958 2.77282
Spine1  3.56337 -0.418719 2.18608
HEad  -0.173967 -1.94941 -3.60715
LeftShoulder1  1.70989 -3.38002 -18.2591
LeftArm  14.9802 -59.5711 -44.1384
LeftForeArm  18.8884 -31.9101 -5.95
LeftHand  -0.432689 -1.79712 7.1707
RightShoulder  12.2661 31.4462 28.6654
RightArm  -22.6906 32.9052 9.18303
RightForeArm  33.041 45.8929 9.21155
RightHand  -0.713059 3.11129 -9.95366
LeftUpLeg  -28.5408 12.3249 5.78673
LeftLeg  7.76566 8.9346 -1.94427
LeftFoot  7.5872 0.573743 -3.71901
LeftToes  3.18074e-010 1.39432e-010 -7.71186e-011
389
root  -2.92047 36.6536 -23.892 -2.18005 -5.72788 -1.35084
RightUpLeg  9.69646 -4.1486 -5.76743
RightLeg  37.9921 2.49975 1.82537
RightFoot  -24.5199 2.29852 21.1298
RightToes  6.35937e-011 1.2921e-014 -6.02303e-014
Spine  6.1984 0.627522 0.322384
Spine1  2.40632 -0.335192 3.30042
HEad  0.110103 -2.33294 -3.07004
LeftShoulder1  1.71518 -3.38434 -18.3252
LeftArm  14.3181 -59.4854 -44.6817
LeftForeArm  20.3487 -33.281 -6.21079
LeftHand  -0.432741 -1.82323 7.14756
RightShoulder  12.3422 31.1509 29.2053
RightArm  -22.8573 32.5628 8.9804
RightForeArm  33.8341 46.7483 9.47052
RightHand  -0.697338 3.13676 -9.71287
LeftUpLeg  -31.9119 18.617 0.460506
LeftLeg  15.9866 -0.868194 -0.274946
LeftFoot  14.818 0.400679 -2.11745
LeftToes  3.18074e-010 1.39432e-010 -7.71186e-011
390
root  -2.61502 36.28 -22.4644 -2.18994 -6.11747 -0.105278
RightUpLeg  5.09076 -3.03278 -9.12224
RightLeg  49.4625 4.32284 5.05954
RightFoot  -17.1834 1.27015 26.7406
RightToes  6.35937e-011 1.2921e-014 -6.02303e-014
Spine  7.58864 1.14954 -2.09332
Spine1  2.13357 -0.122753 3.39313
HEad  -0.986294 -3.16425 -2.39745
LeftShoulder1  1.75122 -3.56289 -18.1976
LeftArm  13.1385 -59.8436 -45.0192
LeftForeArm  21.287 -34.4391 -6.45556
LeftHand  -0.424098 -1.75759 7.06765
RightShoulder  12.4431 31.5939 29.0232
RightArm  -24.6656 32.0504 8.50304
RightForeArm  34.4801 46.8816 9.47463
RightHand  -0.66659 3.11747 -9.31628
LeftUpLeg  -34.7012 19.3183 -1.34569
LeftLeg  25.073 -1.61036 -0.484312
LeftFoot  11.4703 -0.346257 1.36814
LeftToes  3.18074e-010 1.39432e-010 -7.71186e-011
391
root  -2.30518 36.1753 -21.2141 -2.37561 -7.37436 0.885077
RightUpLeg  -2.5961 -0.808011 -11.1254
RightLeg  61.7811 1.95631 3.43177
RightFoot  -2.39486 -1.82331 22.8118
RightToes  6.35937e-011 1.2921e-014 -6.02303e-014
Spine  9.26122 1.53062 -2.80116
Spine1  2.27366 0.476566 2.00958
HEad  -2.79033 -3.41429 -2.07951
LeftShoulder1  1.76107 -3.65578 -17.9992
LeftArm  9.87737 -60.8166 -44.2432
LeftForeArm  23.506 -34.4354 -6.32339
LeftHand  -0.437914 -1.71791 7.32996
RightShoulder  12.6216 32.7063 28.3709
RightArm  -27.9402 32.3863 7.62945
RightForeArm  34.7878 45.4754 8.94108
RightHand  -0.676211 3.17798 -9.38424
LeftUpLeg  -35.1988 20.5546 -2.32674
LeftLeg  30.4287 -1.24326 -0.436207
LeftFoot  7.76174 -0.5084 2.73981
LeftToes  3.18074e-010 1.39432e-010 -7.71186e-011
392
root  -2.09337 36.0237 -20.1759 -2.27109 -8.04876 1.38919
RightUpLeg  -9.2967 0.212472 -11.915
RightLeg  70.5485 0.232023 -0.100733
RightFoot  0.529952 -1.7481 16.7387
RightToes  6.35937e-011 1.2921e-014 -6.02303e-014
Spine  11.2047 1.62412 -3.41954
Spine1  1.98448 0.610437 0.791933
HEad  -4.0807 -3.30331 -1.94255
LeftShoulder1  1.76044 -3.67347 -17.9242
LeftArm  4.48353 -61.7847 -42.8348
LeftForeArm  25.4423 -33.5335 -5.97853
LeftHand  -0.432989 -1.38876 7.57523
RightShoulder  12.7967 33.8039 27.7571
RightArm  -32.0517 32.8014 6.81561
RightForeArm  34.8592 43.876 8.38666
RightHand  -0.695223 3.22323 -9.5928
LeftUpLeg  -35.8349 20.5796 -2.69947
LeftLeg  34.9286 -0.487025 0.00771122
LeftFoot  4.25757 -0.458578 3.15859
LeftToes  3.18074e-010 1.39432e-010 -7.71186e-011
393
root  -1.92089 36.1202 -19.0955 -1.98853 -7.78179 0.699848
RightUpLeg  -14.4909 -0.243147 -11.4278
RightLeg  74.5467 -0.671008 -3.91083
RightFoot  -2.82802 -1.22753 16.1328
RightToes  6.35937e-011 1.2921e-014 -6.02303e-014
Spine  12.2945 1.3285 -2.80643
Spine1  1.85402 0.424687 0.656325
HEad  -4.84449 -3.3274 -2.00454
LeftShoulder1  1.78604 -3.79791 -17.8519
LeftArm  -2.67597 -62.1588 -42.0827
LeftForeArm  25.4314 -32.5866 -5.74211
LeftHand  -0.440346 -0.73351 8.46941
RightShoulder  12.781 34.1347 27.3914
RightArm  -35.743 32.7153 6.10982
RightForeArm  34.6033 42.9726 8.10672
RightHand  -0.731945 3.09534 -10.2281
LeftUpLeg  -35.4409 20.0836 -1.94318
LeftLeg  37.4987 -0.210012 0.212355
LeftFoot  1.6429 -0.37848 3.2379
LeftToes  3.18074e-010 1.39432e-010 -7.71186e-011
394
root  -1.81857 36.3919 -18.0533 -1.35471 -7.23031 0.21693
RightUpLeg  -19.1966 -1.17607 -10.7544
RightLeg  74.1106 -1.42099 -6.78342
RightFoot  -4.77388 -0.874634 14.6009
RightToes  6.35937e-011 1.2921e-014 -6.02303e-014
Spine  12.5114 0.756679 -2.44126
Spine1  1.70452 0.0158962 0.63035
HEad  -4.92197 -2.71014 -1.57239
LeftShoulder1  1.81514 -3.86563 -18.0362
LeftArm  -9.02887 -61.532 -40.2012
LeftForeArm  25.2065 -32.2429 -5.6702
LeftHand  -0.42069 0.213665 9.48669
RightShoulder  12.8998 33.4127 28.4302
RightArm  -35.5433 32.8059 5.98736
RightForeArm  35.0846 43.4899 8.24394
RightHand  -0.822841 2.79954 -11.8554
LeftUpLeg  -34.5111 20.1233 -1.66466
LeftLeg  38.0832 -0.50548 -0.0371771
LeftFoot  -0.131011 -0.34383 3.51068
LeftToes  3.18074e-010 1.39432e-010 -7.71186e-011
395
root  -1.76608 36.8096 -17.0683 -0.693481 -7.02441 0.0499777
RightUpLeg  -22.8171 -1.39552 -10.1377
RightLeg  69.1627 -2.72646 -8.68153
RightFoot  -6.17856 -0.671842 13.9011
RightToes  6.35937e-011 1.2921e-014 -6.02303e-014
Spine  12.8021 0.475307 -2.57886
Spine1  1.0994 -0.254809 1.2842
HEad  -5.03566 -1.8721 -1.32076
LeftShoulder1  1.86233 -3.71734 -19.2856
LeftArm  -11.3552 -59.9974 -37.1957
LeftForeArm  25.5043 -34.1525 -6.13283
LeftHand  -0.417231 -0.14666 8.82778
RightShoulder  12.688 32.3586 28.9186
RightArm  -32.0672 32.4567 7.10707
RightForeArm  36.662 45.5783 8.84959
RightHand  -0.898934 2.8455 -12.855
LeftUpLeg  -32.7117 20.152 -1.47219
LeftLeg  36.9414 -0.639235 -0.134014
LeftFoot  -1.44499 -0.270446 3.2241
LeftToes  3.18074e-010 1.39432e-010 -7.71186e-011
396
root  -1.73778 37.3 -16.1413 -0.182678 -6.88531 -0.158299
RightUpLeg  -24.4299 -0.774355 -9.56413
RightLeg  59.6522 -4.31993 -8.41681
RightFoot  -6.70522 -0.626982 14.2869
RightToes  6.35937e-011 1.2921e-014 -6.02303e-014
Spine  12.7366 0.41911 -2.45514
Spine1  1.0001 -0.341916 2.14461
HEad  -5.72625 -1.28559 -1.65322
LeftShoulder1  1.9249 -3.69126 -20.3186
LeftArm  -10.7972 -58.0069 -36.1193
LeftForeArm  26.8602 -36.7374 -6.73821
LeftHand  -0.415852 0.260262 9.45862
RightShoulder  12.4508 31.8075 28.8184
RightArm  -28.4307 31.58 8.43592
RightForeArm  38.8829 48.3198 9.71135
RightHand  -0.91335 2.72672 -13.2384
LeftUpLeg  -30.2634 20.0812 -1.07902
LeftLeg  34.772 -0.755438 -0.192287
LeftFoot  -2.33451 -0.214675 2.90434
LeftToes  3.18074e-010 1.39432e-010 -7.71186e-011
397
root  -1.77306 37.6876 -15.2599 0.125458 -6.55934 -0.390937
RightUpLeg  -24.0153 0.662459 -9.26783
RightLeg  46.9532 -4.8953 -5.91363
RightFoot  -6.35418 -0.83536 18.0426
RightToes  6.35937e-011 1.2921e-014 -6.02303e-014
Spine  12.5859 0.341155 -1.85927
Spine1  1.14051 -0.34367 2.40686
HEad  -6.74599 -0.93048 -2.04595
LeftShoulder1  2.01044 -3.75155 -21.3404
LeftArm  -11.3069 -55.4577 -36.3682
LeftForeArm  25.2698 -41.3005 -8.18108
LeftHand  -0.272275 3.0713 13.2476
RightShoulder  12.5525 31.5668 29.3693
RightArm  -26.1211 30.2743 9.94978
RightForeArm  38.0022 52.1623 11.4155
RightHand  -0.910978 1.50035 -15.4484
LeftUpLeg  -28.0681 19.6141 -0.481806
LeftLeg  33.2102 -0.699662 -0.128828
LeftFoot  -2.9439 -0.17202 2.58513
LeftToes  3.18074e-010 1.39432e-010 -7.71186e-011
398
root  -1.89268 37.9751 -14.3773 0.164734 -5.53512 -0.579477
RightUpLeg  -22.4102 1.92741 -8.96879
RightLeg  35.3088 -4.35774 -3.56477
RightFoot  -6.85176 -0.721124 17.0812
RightToes  6.35937e-011 1.2921e-014 -6.02303e-014
Spine  12.5157 -0.144668 -0.490933
Spine1  1.16528 -0.459614 1.26326
HEad  -7.75163 -0.768816 -1.41213
LeftShoulder1  2.02911 -3.48019 -22.7653
LeftArm  -14.668 -51.6952 -35.8406
LeftForeArm  29.5892 -50.2316 -11.2003
LeftHand  -0.19787 3.71127 12.9928
RightShoulder  13.6061 31.1976 32.8231
RightArm  -27.2864 27.9776 9.83303
RightForeArm  38.9117 58.1142 14.6076
RightHand  -1.14837 1.09669 -20.5339
LeftUpLeg  -25.8778 18.3928 0.242719
LeftLeg  32.0755 -0.61041 -0.0541295
LeftFoot  -3.84693 -0.115918 2.12421
LeftToes  3.18074e-010 1.39432e-010 -7.71186e-011
399
root  -2.11844 38.1397 -13.5269 -0.0505981 -3.89732 -0.490456
RightUpLeg  -21.1131 2.47793 -8.95583
RightLeg  30.8589 -5.89522 -4.02863
RightFoot  -5.65735 -0.789873 15.0504
RightToes  6.35937e-011 1.2921e-014 -6.02303e-014
Spine  11.981 -0.0004345 -0.171686
Spine1  1.48851 -0.29759 1.31311
HEad  -8.40411 -1.88491 -0.916984
LeftShoulder1  1.95205 -2.94847 -24.0263
LeftArm  -15.2511 -49.2183 -35.7659
LeftForeArm  33.1344 -58.2817 -15.2784
LeftHand  -0.13411 4.2254 12.1342
RightShoulder  13.7259 29.0765 35.7876
RightArm  -30.0769 26.1341 8.39051
RightForeArm  42.7414 64.4704 19.3676
RightHand  -0.987629 0.429922 -19.6759
LeftUpLeg  -23.9131 17.6317 0.737394
LeftLeg  31.5087 -1.30786 -0.509948
LeftFoot  -5.09612 -0.0651301 1.75686
LeftToes  3.18074e-010 1.39432e-010 -7.71186e-011
400
root  -2.40054 38.1738 -12.8226 -0.463043 -1.97249 0.137953
RightUpLeg  -19.6306 1.02592 -9.26082
RightLeg  31.7941 -6.37114 -4.48226
RightFoot  -7.27461 -0.575529 14.7335
RightToes  6.35937e-011 1.2921e-014 -6.02303e-014
Spine  11.4817 0.223122 -0.730845
Spine1  1.39677 -0.11635 1.34056
HEad  -7.83902 -3.04734 -1.48043
LeftShoulder1  1.83148 -2.62228 -23.6482
LeftArm  -17.9359 -47.038 -34.3908
LeftForeArm  36.8893 -62.7258 -18.374
LeftHand  -0.109202 4.45678 11.9217
RightShoulder  13.1098 27.1164 36.5239
RightArm  -33.5772 24.3614 7.3848
RightForeArm  44.8921 69.1397 25.1168
RightHand  -0.9516 -0.0754925 -20.7136
LeftUpLeg  -22.2715 16.6842 0.739573
LeftLeg  31.3775 -2.14555 -1.05627
LeftFoot  -6.32232 -0.0304279 1.56292
LeftToes  3.18074e-010 1.39432e-010 -7.71186e-011
401
root  -2.64637 38.3099 -12.2533 -1.07373 0.522643 -0.119113
RightUpLeg  -16.5652 -1.27281 -8.80107
RightLeg  30.5203 -6.22552 -4.18707
RightFoot  -8.64555 -0.404605 14.6108
RightToes  6.35937e-011 1.2921e-014 -6.02303e-014
Spine  11.3238 0.0592381 -0.203956
Spine1  0.929939 -0.36739 1.95224
HEad  -6.5618 -3.61534 -2.10676
LeftShoulder1  1.67063 -2.10953 -23.5022
LeftArm  -23.9525 -44.1394 -30.3176
LeftForeArm  35.6864 -66.0165 -22.041
LeftHand  -0.0560356 4.95117 10.4554
RightShoulder  12.3696 25.0971 37.0094
RightArm  -37.2262 22.5295 5.65268
RightForeArm  49.6727 73.3609 33.4788
RightHand  -0.913554 -0.323482 -20.8431
LeftUpLeg  -20.552 14.8316 1.59951
LeftLeg  30.7579 -2.72065 -1.39641
LeftFoot  -6.54621 -0.0126214 1.24265
LeftToes  3.18074e-010 1.39432e-010 -7.71186e-011
